<?xml version="1.0" standalone="no"?>
<!DOCTYPE svg PUBLIC "-//W3C//DTD SVG 20010904//EN"
 "http://www.w3.org/TR/2001/REC-SVG-20010904/DTD/svg10.dtd">
<svg version="1.0" xmlns="http://www.w3.org/2000/svg"
 width="250.000000pt" height="250.000000pt" viewBox="0 0 250.000000 250.000000"
 preserveAspectRatio="xMidYMid meet">

<g transform="translate(0.000000,250.000000) scale(0.100000,-0.100000)"
fill="#000000" stroke="none">
<path d="M1092 2489 c-213 -27 -440 -121 -610 -253 -131 -100 -279 -281 -355
-431 -37 -73 -82 -208 -103 -305 -25 -118 -25 -362 0 -480 51 -237 155 -436
318 -607 110 -115 217 -192 363 -264 348 -170 742 -170 1090 0 146 72 253 149
363 264 163 171 267 370 318 607 25 117 25 362 0 478 -66 306 -234 571 -481
754 -249 187 -595 277 -903 237z m36 -911 l-3 -73 -265 -3 c-255 -2 -265 -3
-287 -24 -31 -29 -32 -92 -1 -125 21 -23 25 -23 222 -23 131 0 212 -4 235 -12
109 -37 171 -122 171 -232 -1 -99 -41 -166 -130 -214 -41 -21 -50 -22 -356
-22 l-314 0 0 75 0 75 299 0 300 0 20 26 c27 34 27 84 0 118 l-20 26 -204 0
c-197 0 -215 2 -285 34 -55 24 -101 87 -120 163 -12 45 -11 58 5 109 20 64 70
126 124 154 32 16 67 18 324 19 l288 1 -3 -72z m839 51 c78 -43 125 -107 152
-205 15 -56 14 -102 -4 -169 -19 -73 -48 -120 -97 -155 -71 -52 -123 -61 -323
-58 l-180 3 -3 73 -3 72 171 0 c150 0 175 2 213 20 24 11 47 32 55 47 17 37
15 147 -2 182 -30 57 -47 61 -259 61 -137 0 -196 -3 -205 -12 -9 -9 -12 -95
-12 -325 l0 -313 -80 0 -80 0 0 324 c0 355 2 371 60 423 57 50 60 51 317 52
228 1 245 0 280 -20z"/>
</g>
</svg>
